<?xml version="1.0" encoding="UTF-8" standalone="no"?>
<svg
   xmlns:dc="http://purl.org/dc/elements/1.1/"
   xmlns:cc="http://creativecommons.org/ns#"
   xmlns:rdf="http://www.w3.org/1999/02/22-rdf-syntax-ns#"
   xmlns:svg="http://www.w3.org/2000/svg"
   xmlns="http://www.w3.org/2000/svg"
   id="svg8"
   version="1.1"
   viewBox="0 0 11.1125 11.1125"
   height="42"
   width="42">

  <defs
     id="defs2" />
  <metadata
     id="metadata5">
    <rdf:RDF>
      <cc:Work
         rdf:about="">
        <dc:format>image/svg+xml</dc:format>
        <dc:type
           rdf:resource="http://purl.org/dc/dcmitype/StillImage" />
        <dc:title>icn-folder</dc:title>
      </cc:Work>
    </rdf:RDF>
  </metadata>
  <g
     id="layer2">
    <g
       id="g4257" class="svg_dark">
      <path
         id="rect3794"
         d="M -5.3395709e-4,0.00147 H 1.7528646 V 2.66775 H -5.3395709e-4 Z M 0.91152332,1.39023 H 10.200443 c 0.50528,0 0.912057,0.40678 0.912057,0.91206 v 7.93122 c 0,0.50528 -0.406777,0.91206 -0.912057,0.91206 H 0.91152332 c -0.50527973,0 -0.91205727709,-0.40678 -0.91205727709,-0.91206 V 2.30229 c 0,-0.50528 0.40677754709,-0.91206 0.91205727709,-0.91206 z M 1.3326036,0.00147 h 4.7346501 c 0.7385582,0 1.3331375,0.59458 1.3331375,1.33313 0,0.73856 -0.5945793,1.33314 -1.3331375,1.33314 H 1.3326036 c -0.73855823,0 -1.33313755709,-0.59458 -1.33313755709,-1.33314 0,-0.73855 0.59457932709,-1.33313 1.33313755709,-1.33313 z"
          />

	      <path class="svg_light"
		 id="rect3776"
		 d="M 9.9182246,6.8481864 H 6.086339 V 2.6720751 h 3.8318856 z m -0.011431,3.003758 H 6.0716505 V 7.6115073 H 9.9067939 Z M 1.2250648,5.6876112 H 5.0569504 V 9.8637225 H 1.2250648 Z M 1.1937392,2.6838533 H 5.0502634 V 4.9242904 H 1.1937419 Z M 1.0432745,0.64722 h 4.9824113 c 0.1892974,0 0.341692,0.15239 0.341692,0.34169 0,0.1893 -0.1523946,0.34169 -0.341692,0.34169 H 1.0432745 c -0.18929736,0 -0.34169201,-0.15239 -0.34169201,-0.34169 0,-0.1893 0.15239465,-0.34169 0.34169201,-0.34169 z"
		  />

    </g>

  </g>
</svg>
